<svg xmlns="http://www.w3.org/2000/svg" xmlns:xlink="http://www.w3.org/1999/xlink" width="500" zoomAndPan="magnify" viewBox="0 0 375 374.999991" height="500" preserveAspectRatio="xMidYMid meet" version="1.0"><defs><g/><clipPath id="7daface719"><path d="M 187.5 0 C 83.945312 0 0 83.945312 0 187.5 C 0 291.054688 83.945312 375 187.5 375 C 291.054688 375 375 291.054688 375 187.5 C 375 83.945312 291.054688 0 187.5 0 Z M 187.5 0 " clip-rule="nonzero"/></clipPath></defs><g clip-path="url(#7daface719)"><rect x="-37.5" width="450" fill="#129490" y="-37.499999" height="449.999989" fill-opacity="1"/></g><g fill="#ffffff" fill-opacity="1"><g transform="translate(31.909287, 276.979454)"><g><path d="M 88.097656 10.582031 C 93.246094 9.4375 97.820312 6.863281 102.113281 3.71875 C 107.261719 0 111.835938 -4.578125 116.128906 -9.4375 C 124.707031 -19.449219 131.859375 -30.03125 138.4375 -41.472656 C 142.730469 -49.195312 146.445312 -57.207031 148.449219 -65.785156 C 149.019531 -67.789062 149.878906 -69.21875 151.882812 -69.792969 L 153.597656 -70.648438 C 166.183594 -76.65625 179.339844 -81.519531 192.496094 -86.378906 C 200.507812 -89.242188 208.515625 -91.53125 216.808594 -93.816406 C 217.953125 -94.105469 219.382812 -93.816406 220.242188 -95.246094 C 217.667969 -98.109375 217.667969 -98.109375 214.234375 -97.25 C 207.941406 -95.820312 201.652344 -94.105469 195.644531 -91.816406 C 181.34375 -87.238281 167.613281 -81.230469 153.882812 -75.511719 L 152.167969 -74.652344 C 150.164062 -73.796875 149.878906 -74.082031 149.59375 -76.082031 L 149.59375 -78.371094 C 149.308594 -83.804688 147.019531 -88.667969 143.015625 -92.386719 C 138.4375 -96.679688 133.003906 -99.824219 126.996094 -100.96875 C 122.421875 -101.828125 117.84375 -101.828125 113.265625 -101.539062 C 107.546875 -100.96875 102.113281 -99.824219 96.390625 -98.394531 C 82.089844 -94.675781 67.789062 -90.671875 53.488281 -86.953125 C 44.621094 -84.378906 35.46875 -82.089844 26.027344 -81.230469 C 21.453125 -80.660156 16.589844 -80.660156 11.726562 -81.519531 C 9.726562 -81.804688 8.582031 -82.949219 8.007812 -84.664062 C 7.152344 -87.523438 6.578125 -90.671875 7.152344 -93.816406 C 8.007812 -98.964844 9.726562 -103.828125 11.726562 -108.691406 C 18.59375 -123.277344 26.886719 -137.007812 36.613281 -149.878906 C 47.480469 -164.464844 59.78125 -177.339844 74.652344 -187.636719 C 89.242188 -197.933594 105.257812 -204.511719 122.992188 -207.085938 C 127.28125 -207.65625 131.574219 -207.65625 135.863281 -206.511719 C 138.722656 -205.941406 141.296875 -204.511719 142.730469 -201.9375 C 143.585938 -201.078125 144.160156 -199.933594 144.730469 -199.078125 C 147.878906 -192.785156 149.308594 -186.492188 148.734375 -179.339844 C 148.164062 -175.050781 147.589844 -171.046875 146.734375 -166.753906 C 143.871094 -154.167969 138.722656 -142.441406 129.855469 -133.003906 C 129.570312 -132.71875 129.570312 -132.429688 129.285156 -132.429688 C 129 -131.859375 129 -131.574219 129.570312 -131.289062 C 129.855469 -131.289062 130.144531 -131 130.429688 -131.289062 C 132.144531 -132.144531 133.574219 -133.574219 134.71875 -135.003906 C 139.011719 -139.867188 142.441406 -145.304688 145.015625 -151.308594 C 148.449219 -159.03125 150.453125 -167.042969 151.882812 -175.621094 C 153.027344 -181.914062 152.453125 -188.492188 149.878906 -194.785156 C 146.445312 -203.367188 139.867188 -208.515625 131 -210.804688 C 127.28125 -211.660156 123.277344 -211.949219 118.988281 -211.660156 C 114.699219 -211.375 110.121094 -210.515625 105.542969 -209.660156 C 96.105469 -207.371094 86.667969 -203.9375 78.085938 -199.078125 C 62.925781 -190.78125 49.769531 -180.199219 38.613281 -167.042969 C 26.316406 -153.027344 16.304688 -137.292969 8.007812 -120.703125 C 5.148438 -115.269531 2.574219 -109.550781 1.144531 -103.542969 C 0 -98.964844 -0.570312 -94.390625 0.859375 -89.8125 C 1.429688 -87.238281 2.289062 -84.949219 4.289062 -83.519531 C 8.292969 -80.089844 12.585938 -77.515625 18.019531 -77.226562 C 20.878906 -77.226562 23.742188 -76.941406 26.601562 -77.226562 C 32.605469 -77.800781 38.613281 -78.945312 44.621094 -80.660156 C 58.0625 -84.378906 71.507812 -88.097656 84.949219 -91.53125 C 94.960938 -94.390625 104.972656 -97.535156 115.554688 -98.394531 C 121.5625 -99.253906 127.28125 -98.679688 133.003906 -97.25 C 135.863281 -96.390625 138.4375 -94.675781 140.441406 -92.386719 C 142.730469 -89.527344 144.160156 -86.09375 144.445312 -82.375 C 144.730469 -79.515625 144.445312 -76.941406 144.445312 -74.082031 C 144.445312 -71.792969 143.300781 -70.078125 141.011719 -69.21875 C 126.710938 -62.066406 113.554688 -53.203125 100.683594 -44.046875 C 92.101562 -37.753906 84.09375 -30.890625 77.515625 -22.597656 C 74.082031 -18.59375 71.222656 -14.300781 68.933594 -9.726562 C 67.503906 -6.863281 66.644531 -3.71875 66.929688 -0.570312 C 67.21875 2.859375 68.648438 5.71875 71.507812 7.722656 C 76.65625 11.15625 82.089844 12.011719 88.097656 10.582031 Z M 77.515625 8.007812 C 74.941406 8.292969 73.222656 7.152344 72.367188 4.863281 C 71.222656 2.003906 71.222656 -0.859375 72.078125 -3.71875 C 72.9375 -7.152344 74.941406 -10.296875 76.941406 -13.445312 C 82.089844 -21.167969 88.667969 -28.03125 95.820312 -34.039062 C 101.253906 -38.898438 107.261719 -43.191406 113.554688 -47.480469 C 121.277344 -52.914062 129.570312 -58.0625 137.867188 -62.640625 C 139.011719 -63.210938 140.152344 -64.070312 141.871094 -64.070312 C 141.296875 -61.496094 140.152344 -59.207031 139.296875 -57.207031 C 134.148438 -45.191406 127.28125 -34.324219 119.558594 -23.742188 C 114.699219 -16.875 109.550781 -10.582031 103.257812 -4.863281 C 99.539062 -1.144531 95.246094 2.003906 90.386719 4.578125 C 86.378906 6.578125 82.089844 8.007812 77.515625 8.007812 Z M 77.515625 8.007812 "/></g></g></g><g fill="#ffffff" fill-opacity="1"><g transform="translate(347.081964, 87.040591)"><g><path d="M -80.59375 192.734375 L -3.15625 192.734375 L -3.15625 188.15625 L -27.828125 188.15625 L -92.359375 -2.875 L -97.515625 -2.875 L -158.890625 188.15625 L -179.546875 188.15625 L -179.546875 192.734375 L -128.203125 192.734375 L -128.203125 188.15625 L -152.875 188.15625 L -105.265625 39.859375 L -54.78125 188.15625 L -80.59375 188.15625 Z M -80.59375 192.734375 "/></g></g></g></svg>